<?xml version="1.0" standalone="no"?>
<!DOCTYPE svg PUBLIC "-//W3C//DTD SVG 20010904//EN"
 "http://www.w3.org/TR/2001/REC-SVG-20010904/DTD/svg10.dtd">
<svg version="1.0" xmlns="http://www.w3.org/2000/svg"
 width="512.000000pt" height="512.000000pt" viewBox="0 0 512.000000 512.000000"
 preserveAspectRatio="xMidYMid meet">

<g transform="translate(0.000000,512.000000) scale(0.100000,-0.100000)"
fill="#000000" stroke="none">
<path d="M425 5110 c-208 -42 -376 -213 -416 -424 -16 -84 -11 -591 6 -665 44
-184 208 -350 385 -390 25 -5 90 -13 146 -17 l101 -7 -21 -61 c-19 -57 -21
-83 -21 -381 0 -324 3 -352 41 -441 3 -8 -32 -13 -113 -17 -208 -9 -343 -82
-447 -239 -75 -113 -79 -137 -84 -478 -4 -342 2 -393 60 -504 43 -82 146 -183
228 -223 80 -39 127 -50 256 -59 l101 -7 -20 -61 c-19 -54 -21 -92 -25 -338
-2 -174 1 -304 7 -349 33 -209 196 -385 402 -434 56 -13 313 -15 2027 -15
1948 0 1963 0 2002 20 26 13 47 34 60 60 37 73 23 126 -60 216 -56 62 -110
163 -141 264 -30 95 -32 269 -6 370 23 89 77 193 134 264 26 32 56 68 67 81
46 56 24 157 -43 202 -33 23 -39 23 -321 23 l-288 0 -32 37 c-48 55 -107 186
-126 283 -37 189 7 399 115 547 l31 43 285 0 c267 0 288 1 325 20 26 13 47 34
60 60 37 73 23 126 -60 216 -56 62 -110 163 -141 264 -30 95 -32 269 -6 370
23 89 77 193 134 264 26 32 56 68 67 81 46 56 24 157 -43 202 -33 23 -39 23
-321 23 l-288 0 -32 37 c-47 53 -107 186 -126 278 -33 162 -1 363 80 497 19
31 59 86 89 122 30 36 58 78 62 95 14 66 -31 145 -98 170 -34 13 -3929 14
-3992 1z m3640 -307 c-76 -185 -99 -308 -92 -483 6 -133 28 -237 72 -336 14
-31 25 -60 25 -65 0 -13 -3499 -12 -3575 1 -77 13 -131 52 -167 120 l-28 52 0
265 c0 180 4 279 12 307 15 50 89 127 138 143 25 8 545 11 1829 12 1704 1
1793 0 1786 -16z m-2553 -1487 l3 -294 25 -27 c69 -73 116 -72 286 6 l132 61
131 -61 c146 -68 192 -75 249 -41 19 12 41 38 52 63 18 38 20 67 20 315 l0
272 1130 0 c622 0 1130 -1 1130 -3 0 -2 -11 -32 -25 -66 -51 -125 -69 -224
-69 -381 0 -163 20 -267 73 -385 l30 -65 -1797 0 c-1787 0 -1797 1 -1842 21
-56 25 -86 53 -113 104 -21 37 -22 57 -25 295 -4 294 2 337 54 399 66 77 79
80 331 81 l222 0 3 -294z m598 154 c0 -77 -4 -140 -9 -140 -5 0 -33 11 -63 25
-66 31 -84 31 -160 0 -34 -14 -63 -25 -65 -25 -2 0 -3 63 -3 140 l0 140 150 0
150 0 0 -140z m602 -1349 c3 -274 4 -291 24 -317 67 -90 120 -91 298 -7 l129
60 124 -58 c152 -72 177 -77 237 -51 85 38 86 44 86 375 l0 287 231 0 c216 0
231 -1 224 -17 -76 -185 -99 -308 -92 -483 6 -133 28 -237 72 -336 14 -31 25
-60 25 -65 0 -13 -3499 -12 -3575 1 -77 13 -131 52 -167 120 l-28 52 0 265 c0
180 4 279 12 307 15 50 89 127 138 143 25 8 363 11 1147 12 l1112 1 3 -289z
m598 145 l0 -145 -55 25 c-70 30 -116 30 -183 -1 -30 -14 -56 -25 -58 -25 -2
0 -4 65 -4 145 l0 145 150 0 150 0 0 -144z m1360 -1069 c0 -2 -11 -32 -25 -66
-51 -125 -69 -224 -69 -381 0 -163 20 -267 73 -385 l30 -65 -1797 0 c-1787 0
-1797 1 -1842 21 -56 25 -86 53 -113 104 -21 37 -22 57 -25 295 -2 164 0 273
8 306 13 60 63 124 119 154 35 19 78 19 1839 20 991 0 1802 -1 1802 -3z"/>
</g>
</svg>
