<?xml version="1.0" standalone="no"?>
<!DOCTYPE svg PUBLIC "-//W3C//DTD SVG 20010904//EN"
 "http://www.w3.org/TR/2001/REC-SVG-20010904/DTD/svg10.dtd">
<svg version="1.0" xmlns="http://www.w3.org/2000/svg"
 width="512.000000pt" height="512.000000pt" viewBox="0 0 512.000000 512.000000"
 preserveAspectRatio="xMidYMid meet">

<g transform="translate(0.000000,512.000000) scale(0.100000,-0.100000)"
fill="#000000" stroke="none">
<path d="M4153 5106 c-181 -44 -334 -202 -372 -384 -7 -36 -11 -306 -11 -847
l0 -795 -255 0 c-147 0 -276 -5 -307 -11 -187 -39 -348 -200 -387 -387 -8 -37
-11 -392 -11 -1167 l0 -1115 -715 0 -715 0 0 1530 c0 1632 -2 1576 45 1594 9
3 111 6 226 6 220 0 255 -6 275 -47 5 -10 11 -589 14 -1288 l5 -1270 24 -38
c13 -21 42 -50 64 -65 34 -23 52 -27 107 -27 55 0 73 4 107 27 22 15 51 44 64
65 l24 38 3 1270 c2 915 0 1287 -8 1330 -36 191 -197 354 -388 394 -30 6 -157
11 -295 11 -263 0 -312 -7 -409 -56 -69 -35 -167 -135 -201 -206 -56 -117 -57
-127 -57 -815 l0 -633 -265 0 c-154 0 -286 -5 -317 -11 -191 -40 -352 -203
-388 -394 -8 -43 -10 -295 -8 -871 l3 -810 27 -41 c15 -22 44 -51 65 -64 l38
-24 2426 0 2425 0 41 27 c62 41 88 90 88 168 0 78 -26 127 -88 168 l-41 27
-408 3 -408 3 0 2119 c0 1622 3 2125 12 2145 22 49 50 55 263 55 206 0 241 -6
261 -47 5 -10 11 -856 14 -1883 l5 -1865 24 -38 c13 -21 42 -50 64 -65 34 -23
52 -27 107 -27 55 0 73 4 107 27 22 15 51 44 64 65 l24 38 3 1865 c2 1356 0
1881 -8 1925 -36 191 -197 354 -388 394 -74 15 -502 13 -569 -3z m-383 -3566
l0 -1140 -280 0 -280 0 0 1103 c1 895 3 1106 14 1126 26 47 45 50 304 51 l242
0 0 -1140z m-2790 -430 l0 -710 -290 0 -290 0 0 673 c1 538 3 677 14 696 26
47 44 50 314 51 l252 0 0 -710z"/>
</g>
</svg>
