<?xml version="1.0" standalone="no"?>
<!DOCTYPE svg PUBLIC "-//W3C//DTD SVG 20010904//EN"
 "http://www.w3.org/TR/2001/REC-SVG-20010904/DTD/svg10.dtd">
<svg version="1.0" xmlns="http://www.w3.org/2000/svg"
 width="512.000000pt" height="512.000000pt" viewBox="0 0 512.000000 512.000000"
 preserveAspectRatio="xMidYMid meet">

<g transform="translate(0.000000,512.000000) scale(0.100000,-0.100000)"
fill="#000000" stroke="none">
<path d="M1312 5109 c-45 -13 -108 -80 -121 -126 -6 -21 -11 -86 -11 -145 l0
-108 -334 0 c-320 0 -337 -1 -414 -23 -189 -55 -326 -188 -405 -394 l-22 -58
-3 -1855 c-3 -2065 -7 -1926 65 -2073 26 -51 58 -94 112 -147 87 -87 164 -131
277 -160 76 -20 118 -20 2104 -20 1986 0 2028 0 2104 20 113 29 190 73 276
160 87 86 131 163 160 276 20 75 20 118 20 1909 0 1790 0 1834 -20 1909 -51
199 -193 357 -383 427 -60 22 -76 23 -419 27 l-356 3 -4 128 c-3 119 -5 130
-30 168 -41 62 -90 88 -168 88 -78 0 -127 -26 -168 -88 -25 -38 -27 -49 -31
-169 l-3 -128 -978 0 -978 0 -3 128 c-4 113 -7 131 -28 165 -47 76 -151 113
-239 86z m-132 -894 c0 -127 11 -169 58 -218 41 -43 81 -60 142 -60 61 0 101
17 142 60 47 49 58 91 58 218 l0 115 980 0 980 0 0 -115 c0 -127 11 -169 58
-218 41 -43 81 -60 142 -60 61 0 101 17 142 60 47 49 58 91 58 218 l0 115 315
0 c291 0 319 -2 353 -19 47 -24 77 -56 97 -103 12 -31 15 -90 15 -348 l0 -310
-2160 0 -2160 0 0 313 c0 282 2 316 19 352 20 44 50 74 96 98 25 14 78 16 348
17 l317 0 0 -115z m3538 -2373 l-3 -1308 -27 -41 c-15 -22 -44 -51 -65 -64
l-38 -24 -2026 0 -2025 0 -41 27 c-22 15 -51 44 -64 65 l-24 38 -3 1308 -2
1307 2160 0 2160 0 -2 -1308z"/>
<path d="M1089 2447 c-118 -63 -140 -216 -45 -312 58 -58 96 -65 336 -65 240
0 278 7 336 65 95 96 73 249 -45 312 -43 22 -52 23 -291 23 -239 0 -248 -1
-291 -23z"/>
<path d="M2269 2447 c-118 -63 -140 -216 -45 -312 58 -58 96 -65 336 -65 240
0 278 7 336 65 95 96 73 249 -45 312 -43 22 -52 23 -291 23 -239 0 -248 -1
-291 -23z"/>
<path d="M3449 2447 c-118 -63 -140 -216 -45 -312 58 -58 96 -65 336 -65 240
0 278 7 336 65 95 96 73 249 -45 312 -43 22 -52 23 -291 23 -239 0 -248 -1
-291 -23z"/>
<path d="M1105 1461 c-163 -74 -159 -296 7 -365 55 -23 481 -23 536 0 80 33
125 100 125 184 0 61 -17 101 -60 142 -56 54 -82 58 -335 58 -204 0 -238 -3
-273 -19z"/>
<path d="M2285 1461 c-163 -74 -159 -296 7 -365 55 -23 481 -23 536 0 80 33
125 100 125 184 0 61 -17 101 -60 142 -56 54 -82 58 -335 58 -204 0 -238 -3
-273 -19z"/>
<path d="M3465 1461 c-163 -74 -159 -296 7 -365 55 -23 481 -23 536 0 80 33
125 100 125 184 0 61 -17 101 -60 142 -56 54 -82 58 -335 58 -204 0 -238 -3
-273 -19z"/>
</g>
</svg>
