<?xml version="1.0" standalone="no"?>
<!DOCTYPE svg PUBLIC "-//W3C//DTD SVG 20010904//EN"
 "http://www.w3.org/TR/2001/REC-SVG-20010904/DTD/svg10.dtd">
<svg version="1.0" xmlns="http://www.w3.org/2000/svg"
 width="512.000000pt" height="512.000000pt" viewBox="0 0 512.000000 512.000000"
 preserveAspectRatio="xMidYMid meet">

<g transform="translate(0.000000,512.000000) scale(0.100000,-0.100000)"
fill="#000000" stroke="none">
<path d="M2312 5100 c-109 -29 -187 -74 -272 -160 -125 -124 -180 -262 -180
-447 0 -86 -2 -96 -25 -118 -43 -43 -67 -34 -176 71 -121 114 -253 168 -414
168 -160 0 -284 -51 -421 -172 -234 -206 -319 -362 -317 -577 2 -161 66 -308
183 -420 83 -81 97 -119 55 -160 -22 -23 -32 -25 -118 -25 -185 0 -323 -55
-447 -180 -139 -138 -180 -256 -180 -514 0 -190 14 -270 66 -376 76 -155 263
-298 402 -308 108 -7 201 72 210 180 3 44 -1 62 -25 108 -26 49 -37 59 -108
96 -58 30 -88 53 -110 83 l-30 43 0 167 c0 165 0 168 27 208 48 72 82 86 237
94 161 8 220 27 314 97 136 105 209 290 178 457 -18 98 -60 172 -153 272 -100
107 -118 150 -97 237 10 46 24 63 123 162 99 99 116 113 162 123 87 21 130 3
237 -97 100 -93 174 -135 272 -153 168 -31 351 40 457 178 70 94 89 153 97
314 8 155 22 189 94 237 40 27 43 27 207 27 164 0 167 0 207 -27 72 -48 86
-82 94 -237 8 -161 27 -220 97 -314 105 -136 290 -209 457 -178 99 18 172 60
272 153 107 100 152 118 239 97 43 -10 63 -26 160 -123 97 -97 113 -117 123
-160 21 -87 0 -138 -105 -248 -80 -84 -116 -146 -140 -241 -43 -167 30 -369
173 -479 94 -71 153 -89 315 -97 124 -7 140 -10 176 -34 22 -14 50 -43 63 -64
23 -36 24 -47 24 -204 0 -163 0 -166 -27 -206 -48 -72 -82 -86 -237 -94 -161
-8 -220 -27 -314 -97 -143 -110 -216 -312 -173 -479 24 -97 58 -154 150 -252
98 -105 116 -150 95 -237 -10 -43 -26 -63 -123 -160 -99 -99 -116 -113 -162
-123 -87 -21 -130 -3 -236 96 -97 91 -154 125 -251 149 -167 43 -369 -30 -479
-173 -70 -94 -89 -153 -97 -314 -8 -155 -22 -189 -94 -237 -38 -26 -48 -27
-181 -31 -201 -5 -261 19 -309 121 -42 88 -112 138 -195 138 -50 0 -119 -36
-156 -83 -25 -31 -31 -49 -34 -103 -4 -60 -1 -72 33 -142 52 -105 161 -215
265 -266 106 -52 186 -66 376 -66 258 0 375 41 514 180 125 124 180 262 180
447 0 86 2 96 25 118 43 43 67 34 176 -71 121 -114 253 -168 414 -168 158 0
283 50 417 168 229 200 322 364 322 571 0 161 -54 293 -168 414 -105 109 -114
133 -71 176 22 23 32 25 118 25 185 0 323 55 447 180 140 139 180 255 180 520
0 265 -40 381 -180 520 -124 125 -262 180 -447 180 -86 0 -96 2 -118 25 -42
41 -28 79 55 160 117 112 181 259 182 420 1 50 -4 115 -11 145 -33 141 -129
277 -305 432 -137 121 -261 172 -421 172 -161 0 -293 -54 -414 -168 -109 -105
-133 -114 -176 -71 -23 22 -25 32 -25 118 0 185 -55 323 -180 447 -140 141
-255 180 -524 179 -135 0 -186 -4 -244 -19z"/>
<path d="M2377 3705 c-313 -53 -605 -242 -780 -506 -120 -182 -140 -270 -82
-364 40 -64 90 -90 172 -90 89 0 132 33 195 149 107 199 247 318 453 389 82
28 101 31 220 31 151 1 216 -14 340 -74 151 -75 270 -194 345 -345 59 -122 74
-189 74 -335 0 -146 -16 -215 -75 -336 -74 -151 -179 -257 -348 -348 -105 -57
-138 -96 -148 -173 -14 -122 75 -222 198 -223 94 0 302 125 441 264 389 392
447 1011 137 1468 -61 89 -207 238 -294 297 -247 171 -562 244 -848 196z"/>
<path d="M1690 2384 c-36 -7 -99 -30 -140 -50 -70 -35 -110 -72 -661 -616
-322 -319 -595 -591 -606 -606 -27 -38 -30 -45 -164 -487 -104 -346 -120 -407
-115 -448 10 -91 77 -161 168 -173 39 -5 108 11 469 111 233 64 438 123 454
131 17 8 299 283 627 612 569 570 597 600 632 672 117 241 74 504 -113 691
-149 149 -347 207 -551 163z m240 -418 c103 -68 118 -210 32 -305 l-37 -42
-143 144 -144 144 43 37 c24 20 57 41 74 46 50 15 133 4 175 -24z m-656 -997
l-365 -365 -202 -56 c-111 -31 -203 -55 -205 -53 -1 1 23 87 54 191 l56 189
372 372 371 373 142 -142 143 -143 -366 -366z"/>
</g>
</svg>
